<?xml version="1.0" encoding="UTF-8"?>
<svg id="Layer_2" data-name="Layer 2" xmlns="http://www.w3.org/2000/svg" viewBox="0 0 685.97 182.78">
  <defs>
    <style>
      .cls-1 {
        fill: #8da500;
        stroke-width: 0px;
      }
    </style>
  </defs>
  <g id="Layer_1-2" data-name="Layer 1">
    <g>
      <path class="cls-1" d="M0,182.78V0h73.89C83.71,0,92.07,2,98.96,6.01c6.89,4.01,12.14,9.62,15.76,16.84,3.61,7.22,5.42,15.71,5.42,25.46,0,8.18-1.2,15.01-3.58,20.5-2.39,5.48-5.73,9.79-10.03,12.92-4.3,3.13-9.25,5.22-14.84,6.27v2.09c6.82,1.04,12.59,3.35,17.3,6.92,4.71,3.57,8.29,8.35,10.75,14.36,2.46,6.01,3.68,13.1,3.68,21.28,0,10.1-1.81,18.89-5.42,26.37-3.62,7.49-8.94,13.32-15.96,17.49-7.03,4.18-15.66,6.27-25.89,6.27H0ZM84.12,55.1c0-6.09-1.5-10.44-4.5-13.06-3-2.61-7.3-3.92-12.89-3.92h-31.11v33.95h30.7c5.59,0,9.96-1.35,13.1-4.05,3.14-2.7,4.71-7,4.71-12.92ZM35.61,144.66h33.98c5.73,0,10.16-1.57,13.3-4.7,3.14-3.13,4.71-7.74,4.71-13.84s-1.64-10.92-4.91-13.97c-3.28-3.04-7.78-4.57-13.51-4.57h-33.57v37.08Z"/>
      <g>
        <path class="cls-1" d="M203.38,114.5l-5.6-10.84h-40.46l7.66,15.67h13.24c9.65,0,18.03-1.62,25.17-4.83Z"/>
        <path class="cls-1" d="M238.68,182.78l-35.3-68.28c-7.13,3.21-15.52,4.83-25.17,4.83h-13.24l31.02,63.45h42.68Z"/>
        <path class="cls-1" d="M197.78,103.66l5.6,10.84c.2-.09.42-.17.62-.27,7.26-3.4,13.23-7.96,17.89-13.71,4.67-5.75,8.15-12.18,10.45-19.32,2.3-7.13,3.45-14.36,3.45-21.67,0-10.62-2.11-20.45-6.33-29.5-4.22-9.05-10.6-16.32-19.12-21.8-8.52-5.48-19.23-8.23-32.12-8.23h-32.9v38.12h30.45c6.96,0,12.15,1.92,15.56,5.75,3.41,3.83,5.11,9.05,5.11,15.67,0,4.53-.78,8.44-2.33,11.75-1.56,3.31-3.86,5.79-6.89,7.44-3.04,1.66-6.86,2.48-11.45,2.48h-30.45v38.12h19.66l-7.66-15.67h40.46Z"/>
      </g>
      <path class="cls-1" d="M280,137.64c.48,1.74,1.33,3.49,2.56,5.25,1.23,1.77,3.01,3.25,5.34,4.44,2.33,1.2,5.42,1.8,9.25,1.8,5.39,0,9.41-1.23,12.08-3.68,2.66-2.45,3.99-5.54,3.99-9.25,0-2.99-.73-5.42-2.2-7.27-1.47-1.85-3.46-3.37-5.97-4.53-2.52-1.17-5.3-2.2-8.35-3.1-2.45-.66-4.8-1.39-7.05-2.2-2.24-.81-4.26-1.8-6.06-2.96-1.79-1.17-3.22-2.65-4.27-4.44-1.05-1.8-1.57-4.04-1.57-6.73,0-3.35.79-6.29,2.38-8.8s3.8-4.47,6.64-5.88c2.84-1.41,6.21-2.11,10.1-2.11,3.59,0,6.64.55,9.16,1.66,2.51,1.11,4.55,2.54,6.11,4.31,1.56,1.77,2.66,3.67,3.32,5.7l-3.05,1.17c-.42-1.44-1.27-2.92-2.56-4.44-1.29-1.53-3.01-2.81-5.16-3.86-2.16-1.05-4.76-1.57-7.81-1.57-2.82,0-5.42.52-7.81,1.57-2.4,1.05-4.3,2.56-5.7,4.53-1.41,1.98-2.11,4.37-2.11,7.18s.75,5.24,2.24,6.92c1.5,1.68,3.52,3.01,6.06,4,2.54.99,5.34,1.93,8.4,2.83,2.45.72,4.82,1.54,7.09,2.47,2.27.93,4.28,2.04,6.02,3.32,1.73,1.29,3.1,2.9,4.08,4.85s1.48,4.3,1.48,7.05c0,2.93-.65,5.64-1.93,8.13-1.29,2.48-3.34,4.49-6.15,6.02-2.82,1.53-6.56,2.29-11.22,2.29-4.07,0-7.5-.6-10.28-1.79-2.78-1.2-5-2.81-6.64-4.85s-2.8-4.28-3.46-6.73l3.05-1.26Z"/>
      <path class="cls-1" d="M392.24,152.28c-4.43,0-8.5-.78-12.21-2.34-3.71-1.56-6.95-3.76-9.7-6.6s-4.88-6.23-6.38-10.15c-1.5-3.92-2.24-8.25-2.24-12.98s.75-9.05,2.24-12.97c1.5-3.92,3.62-7.31,6.38-10.15s5.99-5.04,9.7-6.6c3.71-1.56,7.78-2.34,12.21-2.34s8.41.78,12.12,2.34c3.71,1.56,6.93,3.76,9.65,6.6,2.72,2.84,4.85,6.23,6.38,10.15s2.29,8.25,2.29,12.97-.76,9.06-2.29,12.98c-1.53,3.92-3.65,7.31-6.38,10.15-2.72,2.84-5.94,5.04-9.65,6.6-3.71,1.56-7.76,2.34-12.12,2.34ZM392.24,149.22c5.03,0,9.57-1.17,13.6-3.5,4.04-2.33,7.27-5.67,9.7-10.01,2.43-4.34,3.64-9.5,3.64-15.49s-1.21-11.22-3.64-15.53c-2.42-4.31-5.66-7.63-9.7-9.97-4.04-2.33-8.57-3.5-13.6-3.5s-9.67,1.17-13.74,3.5c-4.07,2.34-7.31,5.66-9.7,9.97-2.4,4.31-3.59,9.49-3.59,15.53s1.2,11.15,3.59,15.49c2.39,4.34,5.63,7.68,9.7,10.01,4.07,2.34,8.65,3.5,13.74,3.5Z"/>
      <path class="cls-1" d="M474.41,88.79v59.8h30.8v3.05h-34.21v-62.86h3.41Z"/>
      <path class="cls-1" d="M573.72,91.84h-2.88l-22.63,59.81h-3.41l23.71-62.86h7.45l23.71,62.86h-3.5l-22.45-59.81ZM553.97,130.37h36.64v3.05h-36.64v-3.05Z"/>
      <path class="cls-1" d="M664.24,88.79c5.03,0,9.05.78,12.08,2.34s5.22,3.68,6.6,6.38c1.38,2.69,2.06,5.78,2.06,9.25,0,2.69-.42,5.15-1.26,7.36-.84,2.22-2.12,4.12-3.86,5.7s-3.89,2.8-6.47,3.63c-2.57.84-5.57,1.26-8.98,1.26h-16.34v26.94h-3.41v-62.86h19.58ZM681.57,106.75c0-4.49-1.32-8.09-3.95-10.82s-7.09-4.09-13.38-4.09h-16.16v29.81h16.34c4.01,0,7.27-.63,9.79-1.89s4.37-3.02,5.57-5.3c1.2-2.27,1.79-4.85,1.79-7.72ZM668.37,123.45l17.6,28.2h-3.86l-17.51-28.2h3.77Z"/>
    </g>
  </g>
</svg>